<?xml version="1.0" encoding="UTF-8"?>
<!DOCTYPE svg PUBLIC "-//W3C//DTD SVG 1.1//EN" "http://www.w3.org/Graphics/SVG/1.1/DTD/svg11.dtd">
<svg xmlns="http://www.w3.org/2000/svg" version="1.1" width="510px" height="510px" style="shape-rendering:geometricPrecision; text-rendering:geometricPrecision; image-rendering:optimizeQuality; fill-rule:evenodd; clip-rule:evenodd" xmlns:xlink="http://www.w3.org/1999/xlink">
<g><path style="opacity:0.987" fill="#7fcc03" d="M 240.5,-0.5 C 252.5,-0.5 264.5,-0.5 276.5,-0.5C 282.534,0.261092 288.534,1.26109 294.5,2.5C 294.457,12.5262 294.457,22.8595 294.5,33.5C 293.209,33.2627 292.209,33.596 291.5,34.5C 274.255,32.1204 256.922,31.1204 239.5,31.5C 235.828,30.9553 236.162,30.6219 240.5,30.5C 240.5,20.1667 240.5,9.83333 240.5,-0.5 Z"/></g>
<g><path style="opacity:0.992" fill="#60bf03" d="M 232.5,-0.5 C 235.167,-0.5 237.833,-0.5 240.5,-0.5C 240.5,9.83333 240.5,20.1667 240.5,30.5C 236.162,30.6219 235.828,30.9553 239.5,31.5C 221.27,33.4316 203.27,37.0982 185.5,42.5C 187.405,31.3505 188.071,20.0172 187.5,8.5C 202.196,3.88457 217.196,0.884566 232.5,-0.5 Z"/></g>
<g><path style="opacity:0.996" fill="#98d504" d="M 294.5,2.5 C 312.524,5.00401 329.857,9.67068 346.5,16.5C 346.062,16.4346 345.728,16.6012 345.5,17C 347.465,28.2463 348.132,39.7463 347.5,51.5C 329.442,43.8139 310.775,38.1473 291.5,34.5C 292.209,33.596 293.209,33.2627 294.5,33.5C 294.457,22.8595 294.457,12.5262 294.5,2.5 Z"/></g>
<g><path style="opacity:0.997" fill="#47b504" d="M 187.5,8.5 C 188.071,20.0172 187.405,31.3505 185.5,42.5C 167.391,48.8888 150.058,56.8888 133.5,66.5C 133.5,54.1667 133.5,41.8333 133.5,29.5C 150.591,20.1369 168.591,13.1369 187.5,8.5 Z"/></g>
<g><path style="opacity:1" fill="#050176" d="M 239.5,31.5 C 256.922,31.1204 274.255,32.1204 291.5,34.5C 310.775,38.1473 329.442,43.8139 347.5,51.5C 356.932,56.3851 366.265,61.5517 375.5,67C 383.863,73.1758 392.196,79.3425 400.5,85.5C 415.29,99.2848 428.623,114.285 440.5,130.5C 485.601,204.788 489.268,281.122 451.5,359.5C 437.936,384.077 420.603,405.743 399.5,424.5C 382.703,438.078 364.369,449.411 344.5,458.5C 327.444,465.847 309.777,471.181 291.5,474.5C 279.876,475.97 268.209,476.97 256.5,477.5C 246.835,477.042 237.169,476.708 227.5,476.5C 204.779,473.042 182.779,466.709 161.5,457.5C 136.361,445.031 113.694,429.031 93.5,409.5C 38.8942,348.082 20.7275,277.082 39,196.5C 42.8183,183.875 47.3183,171.542 52.5,159.5C 71.298,121.368 98.298,90.3679 133.5,66.5C 150.058,56.8888 167.391,48.8888 185.5,42.5C 203.27,37.0982 221.27,33.4316 239.5,31.5 Z"/></g>
<g><path style="opacity:0.989" fill="#b1e004" d="M 346.5,16.5 C 366.037,23.5971 384.037,33.2638 400.5,45.5C 401.833,58.8333 401.833,72.1667 400.5,85.5C 392.196,79.3425 383.863,73.1758 375.5,67C 366.265,61.5517 356.932,56.3851 347.5,51.5C 348.132,39.7463 347.465,28.2463 345.5,17C 345.728,16.6012 346.062,16.4346 346.5,16.5 Z"/></g>
<g><path style="opacity:1" fill="#f7f71a" d="M 259.5,135.5 C 258.527,137.948 258.194,140.615 258.5,143.5C 255.833,143.5 253.167,143.5 250.5,143.5C 250.806,140.615 250.473,137.948 249.5,135.5C 248.308,108.176 247.808,80.8423 248,53.5C 249.898,48.7045 252.065,44.0378 254.5,39.5C 256.935,44.0378 259.102,48.7045 261,53.5C 261.192,80.8423 260.692,108.176 259.5,135.5 Z"/></g>
<g><path style="opacity:0.991" fill="#c7e804" d="M 400.5,45.5 C 415.278,55.0946 428.778,66.4279 441,79.5C 441.464,80.0944 441.631,80.7611 441.5,81.5C 441.818,97.9107 441.484,114.244 440.5,130.5C 428.623,114.285 415.29,99.2848 400.5,85.5C 401.833,72.1667 401.833,58.8333 400.5,45.5 Z"/></g>
<g><path style="opacity:1" fill="#f9f816" d="M 202.5,156.5 C 200.077,158.735 197.411,159.735 194.5,159.5C 179.678,135.861 164.844,112.195 150,88.5C 148.59,82.2258 147.423,75.8925 146.5,69.5C 146.833,69.1667 147.167,68.8333 147.5,68.5C 153.095,71.9264 158.262,75.9264 163,80.5C 176.448,105.73 189.614,131.063 202.5,156.5 Z"/></g>
<g><path style="opacity:1" fill="#f8f817" d="M 314.5,159.5 C 311.589,159.735 308.923,158.735 306.5,156.5C 319.386,131.063 332.552,105.73 346,80.5C 350.738,75.9264 355.905,71.9264 361.5,68.5C 361.833,68.8333 362.167,69.1667 362.5,69.5C 361.577,75.8925 360.41,82.2258 359,88.5C 344.156,112.195 329.322,135.861 314.5,159.5 Z"/></g>
<g><path style="opacity:1" fill="#f4f420" d="M 247.5,138.5 C 247.5,140.5 247.5,142.5 247.5,144.5C 245.5,144.5 243.5,144.5 241.5,144.5C 239.204,124.669 236.871,104.835 234.5,85C 235.327,81.5122 236.827,78.3456 239,75.5C 240.667,77.5 242.333,79.5 244,81.5C 245.872,100.457 247.039,119.457 247.5,138.5 Z"/></g>
<g><path style="opacity:1" fill="#f4f320" d="M 267.5,144.5 C 265.5,144.5 263.5,144.5 261.5,144.5C 261.5,142.833 261.5,141.167 261.5,139.5C 262.022,120.13 263.188,100.797 265,81.5C 266.667,79.1667 268.333,76.8333 270,74.5C 271.777,77.7199 273.277,81.0533 274.5,84.5C 271.807,104.463 269.473,124.463 267.5,144.5 Z"/></g>
<g><path style="opacity:0.994" fill="#25a703" d="M 133.5,29.5 C 133.5,41.8333 133.5,54.1667 133.5,66.5C 98.298,90.3679 71.298,121.368 52.5,159.5C 52.5,139.167 52.5,118.833 52.5,98.5C 74.5715,69.643 101.571,46.643 133.5,29.5 Z"/></g>
<g><path style="opacity:1" fill="#f6f61b" d="M 210.5,152.5 C 208.819,154.008 206.819,155.008 204.5,155.5C 195.68,137.86 186.847,120.193 178,102.5C 177.175,98.7887 177.341,95.122 178.5,91.5C 181.086,93.0426 183.586,94.7093 186,96.5C 194.456,115.076 202.623,133.742 210.5,152.5 Z"/></g>
<g><path style="opacity:1" fill="#f6f61b" d="M 304.5,155.5 C 302.181,155.008 300.181,154.008 298.5,152.5C 306.377,133.742 314.544,115.076 323,96.5C 330.771,89.2702 333.438,91.2702 331,102.5C 322.153,120.193 313.32,137.86 304.5,155.5 Z"/></g>
<g><path style="opacity:1" fill="#f3f222" d="M 238.5,140.5 C 238.5,142.167 238.5,143.833 238.5,145.5C 236.167,145.5 233.833,145.5 231.5,145.5C 228.962,132.809 226.295,120.143 223.5,107.5C 224.68,104.46 226.347,101.794 228.5,99.5C 230.149,101.65 231.982,103.65 234,105.5C 235.829,117.131 237.329,128.798 238.5,140.5 Z"/></g>
<g><path style="opacity:1" fill="#f2f223" d="M 276.5,145.5 C 273.941,145.802 271.607,145.468 269.5,144.5C 271.286,131.501 273.119,118.501 275,105.5C 276.61,103.269 278.443,101.269 280.5,99.5C 282.019,102.044 283.352,104.711 284.5,107.5C 281.83,120.196 279.163,132.863 276.5,145.5 Z"/></g>
<g><path style="opacity:1" fill="#f6f61c" d="M 193.5,161.5 C 191.853,163.326 189.853,164.66 187.5,165.5C 176.175,148.872 164.342,132.538 152,116.5C 151.502,113.518 151.335,110.518 151.5,107.5C 154.937,108.134 158.104,109.467 161,111.5C 171.663,128.319 182.496,144.986 193.5,161.5 Z"/></g>
<g><path style="opacity:1" fill="#f4f420" d="M 218.5,148.5 C 217.089,150.539 215.089,151.539 212.5,151.5C 207.41,139.403 202.41,127.236 197.5,115C 198.044,112.6 198.711,110.267 199.5,108C 202.146,108.92 204.646,110.42 207,112.5C 211.142,124.426 214.976,136.426 218.5,148.5 Z"/></g>
<g><path style="opacity:1" fill="#f7f719" d="M 296.5,151.5 C 293.654,151.448 291.32,150.448 289.5,148.5C 293.227,136.82 297.06,125.153 301,113.5C 303.32,110.852 305.986,108.519 309,106.5C 310.504,110.039 310.837,113.705 310,117.5C 305.59,128.902 301.09,140.235 296.5,151.5 Z"/></g>
<g><path style="opacity:1" fill="#f6f61c" d="M 321.5,164.5 C 320.883,164.611 320.383,164.944 320,165.5C 318.333,164.267 316.833,162.933 315.5,161.5C 326.504,144.986 337.337,128.319 348,111.5C 351,109.833 354,108.167 357,106.5C 357.667,109.833 357.667,113.167 357,116.5C 344.949,132.378 333.116,148.378 321.5,164.5 Z"/></g>
<g><path style="opacity:0.999" fill="#d9ef08" d="M 441.5,81.5 C 455.435,96.0304 467.435,112.03 477.5,129.5C 476.957,129.56 476.624,129.893 476.5,130.5C 477.667,132.833 478.833,135.167 480,137.5C 480.667,215.5 480.667,293.5 480,371.5C 478.546,374.071 477.38,376.738 476.5,379.5C 469.443,393.883 460.443,406.883 449.5,418.5C 450.179,398.846 450.846,379.179 451.5,359.5C 489.268,281.122 485.601,204.788 440.5,130.5C 441.484,114.244 441.818,97.9107 441.5,81.5 Z"/></g>
<g><path style="opacity:0.996" fill="#129f02" d="M 52.5,98.5 C 52.5,118.833 52.5,139.167 52.5,159.5C 47.3183,171.542 42.8183,183.875 39,196.5C 20.7275,277.082 38.8942,348.082 93.5,409.5C 93.5,423.833 93.5,438.167 93.5,452.5C 38.2954,406.436 6.96208,347.436 -0.5,275.5C -0.5,261.5 -0.5,247.5 -0.5,233.5C 4.12017,183.278 21.7868,138.278 52.5,98.5 Z"/></g>
<g><path style="opacity:1" fill="#f3f321" d="M 229.5,146.5 C 226.888,147.371 224.221,148.037 221.5,148.5C 219.607,141.652 217.607,134.819 215.5,128C 217.272,119.9 220.439,119.4 225,126.5C 226.504,133.181 228.004,139.847 229.5,146.5 Z"/></g>
<g><path style="opacity:1" fill="#f4f41e" d="M 287.5,147.5 C 284.831,148.181 282.165,147.848 279.5,146.5C 280.195,139.718 281.528,133.052 283.5,126.5C 285.164,124.005 287.33,122.005 290,120.5C 291.552,122.768 292.385,125.268 292.5,128C 290.753,134.487 289.087,140.987 287.5,147.5 Z"/></g>
<g><path style="opacity:1" fill="#f5f51d" d="M 186.5,166.5 C 185.109,168.89 183.109,170.557 180.5,171.5C 172.235,162.063 163.735,152.73 155,143.5C 154.174,140.207 153.674,136.874 153.5,133.5C 156.647,133.737 159.647,134.57 162.5,136C 170.399,146.327 178.399,156.493 186.5,166.5 Z"/></g>
<g><path style="opacity:1" fill="#f6f61c" d="M 328.5,170.5 C 325.708,170.378 323.708,169.044 322.5,166.5C 330.464,157.264 337.964,147.597 345,137.5C 347.703,135.098 350.87,133.765 354.5,133.5C 354.664,136.187 354.497,138.854 354,141.5C 345.635,151.36 337.135,161.027 328.5,170.5 Z"/></g>
<g><path style="opacity:0.993" fill="#e5f500" d="M 477.5,129.5 C 495.251,162.081 505.918,196.747 509.5,233.5C 509.5,247.5 509.5,261.5 509.5,275.5C 506.59,304.134 499.424,331.801 488,358.5C 484.646,365.883 480.813,372.883 476.5,379.5C 477.38,376.738 478.546,374.071 480,371.5C 480.667,293.5 480.667,215.5 480,137.5C 478.833,135.167 477.667,132.833 476.5,130.5C 476.624,129.893 476.957,129.56 477.5,129.5 Z"/></g>
<g><path style="opacity:1" fill="#788160" d="M 259.5,135.5 C 259.336,138.187 259.503,140.854 260,143.5C 260.21,141.942 260.71,140.609 261.5,139.5C 261.5,141.167 261.5,142.833 261.5,144.5C 260.209,144.737 259.209,144.404 258.5,143.5C 258.194,140.615 258.527,137.948 259.5,135.5 Z"/></g>
<g><path style="opacity:1" fill="#147d02" d="M 249.5,135.5 C 250.473,137.948 250.806,140.615 250.5,143.5C 253.167,143.5 255.833,143.5 258.5,143.5C 259.209,144.404 260.209,144.737 261.5,144.5C 263.5,144.5 265.5,144.5 267.5,144.5C 268.167,144.5 268.833,144.5 269.5,144.5C 271.607,145.468 273.941,145.802 276.5,145.5C 277.209,146.404 278.209,146.737 279.5,146.5C 282.165,147.848 284.831,148.181 287.5,147.5C 287.842,148.338 288.508,148.672 289.5,148.5C 291.32,150.448 293.654,151.448 296.5,151.5C 296.842,152.338 297.508,152.672 298.5,152.5C 300.181,154.008 302.181,155.008 304.5,155.5C 305.167,155.833 305.833,156.167 306.5,156.5C 308.923,158.735 311.589,159.735 314.5,159.5C 314.328,160.492 314.662,161.158 315.5,161.5C 316.833,162.933 318.333,164.267 320,165.5C 320.383,164.944 320.883,164.611 321.5,164.5C 321.328,165.492 321.662,166.158 322.5,166.5C 323.708,169.044 325.708,170.378 328.5,170.5C 328.5,171.833 329.167,172.5 330.5,172.5C 331.419,175.089 333.086,177.089 335.5,178.5C 335.833,179.5 336.5,180.167 337.5,180.5C 338.443,183.109 340.11,185.109 342.5,186.5C 342.5,187.167 342.833,187.5 343.5,187.5C 344.34,189.853 345.674,191.853 347.5,193.5C 347.842,194.338 348.508,194.672 349.5,194.5C 349.265,197.411 350.265,200.077 352.5,202.5C 352.833,203.167 353.167,203.833 353.5,204.5C 353.992,206.819 354.992,208.819 356.5,210.5C 356.328,211.492 356.662,212.158 357.5,212.5C 357.386,215.216 358.386,217.216 360.5,218.5C 359.167,219.5 359.167,220.5 360.5,221.5C 360.687,223.564 361.187,225.564 362,227.5C 362.671,228.252 363.504,228.586 364.5,228.5C 363.909,229.151 363.243,229.818 362.5,230.5C 362.624,231.107 362.957,231.44 363.5,231.5C 363.5,233.833 363.5,236.167 363.5,238.5C 364.833,238.5 366.167,238.5 367.5,238.5C 366.1,239.1 365.1,240.1 364.5,241.5C 364.5,243.5 364.5,245.5 364.5,247.5C 367.167,247.5 369.833,247.5 372.5,247.5C 370.167,248.167 367.833,248.833 365.5,249.5C 365.5,252.5 365.5,255.5 365.5,258.5C 364.549,259.919 364.216,261.585 364.5,263.5C 364.5,264.833 364.5,266.167 364.5,267.5C 365.802,269.028 367.469,270.028 369.5,270.5C 364.5,269.5 362.5,271.5 363.5,276.5C 362.596,277.209 362.263,278.209 362.5,279.5C 361.717,281.343 361.05,283.343 360.5,285.5C 361.243,286.182 361.909,286.849 362.5,287.5C 361.167,287.5 360.5,288.167 360.5,289.5C 351.856,286.507 343.189,283.507 334.5,280.5C 344.64,243.754 335.306,212.921 306.5,188C 280.991,169.685 253.324,165.685 223.5,176C 185.969,193.548 168.469,223.048 171,264.5C 171.546,269.804 172.712,274.971 174.5,280C 166.591,284.029 158.257,287.196 149.5,289.5C 149.167,288.833 148.833,288.167 148.5,287.5C 148.44,284.659 147.774,281.993 146.5,279.5C 146.5,278.167 145.833,277.5 144.5,277.5C 145.369,275.283 145.702,272.95 145.5,270.5C 143.833,270.5 142.167,270.5 140.5,270.5C 142.219,269.978 143.552,268.978 144.5,267.5C 144.5,265.5 144.5,263.5 144.5,261.5C 144.737,260.209 144.404,259.209 143.5,258.5C 143.5,255.833 143.5,253.167 143.5,250.5C 138.305,250.821 133.305,250.487 128.5,249.5C 133.511,249.666 138.511,249.499 143.5,249C 140.635,248.817 137.969,248.317 135.5,247.5C 138.5,247.5 141.5,247.5 144.5,247.5C 144.5,245.5 144.5,243.5 144.5,241.5C 144.5,240.833 144.5,240.167 144.5,239.5C 145.468,237.393 145.802,235.059 145.5,232.5C 146.404,231.791 146.737,230.791 146.5,229.5C 146.961,227.45 147.628,225.45 148.5,223.5C 148.137,222.817 147.804,222.15 147.5,221.5C 148.338,221.158 148.672,220.492 148.5,219.5C 150.448,217.68 151.448,215.346 151.5,212.5C 152.338,212.158 152.672,211.492 152.5,210.5C 154.008,208.819 155.008,206.819 155.5,204.5C 155.833,203.833 156.167,203.167 156.5,202.5C 158.071,200.365 159.404,198.032 160.5,195.5C 161.338,195.158 161.672,194.492 161.5,193.5C 162.933,192.167 164.267,190.667 165.5,189C 164.944,188.617 164.611,188.117 164.5,187.5C 165.492,187.672 166.158,187.338 166.5,186.5C 169.044,185.292 170.378,183.292 170.5,180.5C 171.833,180.5 172.5,179.833 172.5,178.5C 175.089,177.581 177.089,175.914 178.5,173.5C 179.5,173.167 180.167,172.5 180.5,171.5C 183.109,170.557 185.109,168.89 186.5,166.5C 187.167,166.5 187.5,166.167 187.5,165.5C 189.853,164.66 191.853,163.326 193.5,161.5C 194.338,161.158 194.672,160.492 194.5,159.5C 197.411,159.735 200.077,158.735 202.5,156.5C 203.167,156.167 203.833,155.833 204.5,155.5C 206.819,155.008 208.819,154.008 210.5,152.5C 211.492,152.672 212.158,152.338 212.5,151.5C 215.089,151.539 217.089,150.539 218.5,148.5C 219.5,149.833 220.5,149.833 221.5,148.5C 224.221,148.037 226.888,147.371 229.5,146.5C 230.492,146.672 231.158,146.338 231.5,145.5C 233.833,145.5 236.167,145.5 238.5,145.5C 238.5,143.833 238.5,142.167 238.5,140.5C 239.022,142.219 240.022,143.552 241.5,144.5C 243.5,144.5 245.5,144.5 247.5,144.5C 247.5,142.5 247.5,140.5 247.5,138.5C 248.302,139.952 248.802,141.618 249,143.5C 249.497,140.854 249.664,138.187 249.5,135.5 Z"/></g>
<g><path style="opacity:1" fill="#f8f817" d="M 160.5,195.5 C 159.404,198.032 158.071,200.365 156.5,202.5C 131.73,189.947 107.063,177.114 82.5,164C 76.9543,159.284 72.2876,153.784 68.5,147.5C 68.8333,147.167 69.1667,146.833 69.5,146.5C 75.1307,147.441 80.7974,148.274 86.5,149C 111.399,164.275 136.066,179.775 160.5,195.5 Z"/></g>
<g><path style="opacity:1" fill="#f8f817" d="M 352.5,202.5 C 350.265,200.077 349.265,197.411 349.5,194.5C 373.641,179.594 397.641,164.427 421.5,149C 427.353,148.239 433.186,147.406 439,146.5C 439.5,146.833 440,147.167 440.5,147.5C 437.198,152.603 433.531,157.436 429.5,162C 403.924,175.759 378.258,189.259 352.5,202.5 Z"/></g>
<g><path style="opacity:1" fill="#f6f61b" d="M 164.5,187.5 C 164.611,188.117 164.944,188.617 165.5,189C 164.267,190.667 162.933,192.167 161.5,193.5C 144.986,182.496 128.319,171.663 111.5,161C 109.833,158 108.167,155 106.5,152C 109.833,151.333 113.167,151.333 116.5,152C 132.378,164.051 148.378,175.884 164.5,187.5 Z"/></g>
<g><path style="opacity:1" fill="#eff300" d="M 260.5,151.5 C 263.888,151.874 265.722,153.874 266,157.5C 267.529,156.271 268.696,154.771 269.5,153C 270.5,152.333 271.5,152.333 272.5,153C 270.789,155.589 268.955,158.089 267,160.5C 266.505,162.473 266.338,164.473 266.5,166.5C 265.5,166.5 264.5,166.5 263.5,166.5C 264.021,161.154 263.021,156.154 260.5,151.5 Z"/></g>
<g><path style="opacity:1" fill="#f6f61b" d="M 347.5,193.5 C 345.674,191.853 344.34,189.853 343.5,187.5C 359.27,176.242 374.937,164.742 390.5,153C 401.183,149.336 403.516,151.836 397.5,160.5C 380.816,171.526 364.149,182.526 347.5,193.5 Z"/></g>
<g><path style="opacity:1" fill="#e9ef00" d="M 239.5,151.5 C 249.616,151.431 252.616,155.931 248.5,165C 245.392,166.759 242.059,167.592 238.5,167.5C 238.777,162.767 238.443,158.1 237.5,153.5C 238.243,152.818 238.909,152.151 239.5,151.5 Z"/></g>
<g><path style="opacity:1" fill="#f5f51d" d="M 170.5,180.5 C 170.378,183.292 169.044,185.292 166.5,186.5C 157.264,178.536 147.597,171.036 137.5,164C 135.098,161.297 133.765,158.13 133.5,154.5C 136.187,154.336 138.854,154.503 141.5,155C 151.36,163.365 161.027,171.865 170.5,180.5 Z"/></g>
<g><path style="opacity:1" fill="#dae500" d="M 277.5,154.5 C 279.451,154.227 280.951,154.893 282,156.5C 282.828,161.202 282.662,165.869 281.5,170.5C 279.783,169.332 279.116,167.665 279.5,165.5C 276.518,165.104 273.851,165.771 271.5,167.5C 271.167,167.167 270.833,166.833 270.5,166.5C 272.888,162.466 275.222,158.466 277.5,154.5 Z"/></g>
<g><path style="opacity:1" fill="#f5f51e" d="M 342.5,186.5 C 340.11,185.109 338.443,183.109 337.5,180.5C 346.937,172.235 356.27,163.735 365.5,155C 369.097,153.723 372.764,153.39 376.5,154C 374.972,156.917 373.639,159.917 372.5,163C 362.027,170.316 352.027,178.149 342.5,186.5 Z"/></g>
<g><path style="opacity:1" fill="#e3eb00" d="M 225.5,154.5 C 226.978,154.238 228.311,154.571 229.5,155.5C 232.043,159.421 234.71,163.254 237.5,167C 235.49,169.042 233.824,168.709 232.5,166C 228.834,165.177 227.167,166.677 227.5,170.5C 226.5,170.5 225.5,170.5 224.5,170.5C 224.324,165.12 224.658,159.787 225.5,154.5 Z"/></g>
<g><path style="opacity:1" fill="#167b00" d="M 241.5,154.5 C 245.338,154.007 247.338,155.674 247.5,159.5C 247.338,163.326 245.338,164.993 241.5,164.5C 241.5,161.167 241.5,157.833 241.5,154.5 Z"/></g>
<g><path style="opacity:1" fill="#f6f51d" d="M 178.5,173.5 C 177.089,175.914 175.089,177.581 172.5,178.5C 167.503,173.671 162.336,169.004 157,164.5C 156.182,161.773 156.348,159.106 157.5,156.5C 159.776,157.213 162.109,157.713 164.5,158C 169.004,163.336 173.671,168.503 178.5,173.5 Z"/></g>
<g><path style="opacity:1" fill="#f4f420" d="M 335.5,178.5 C 333.086,177.089 331.419,175.089 330.5,172.5C 335.329,167.503 339.996,162.336 344.5,157C 347.146,156.503 349.813,156.336 352.5,156.5C 352.322,159.216 351.822,161.883 351,164.5C 345.664,169.004 340.497,173.671 335.5,178.5 Z"/></g>
<g><path style="opacity:1" fill="#ebf000" d="M 214.5,158.5 C 215.496,158.414 216.329,158.748 217,159.5C 219.403,163.635 221.237,167.968 222.5,172.5C 221.325,172.719 220.325,172.386 219.5,171.5C 218.333,169.167 217.167,166.833 216,164.5C 216.395,167.865 216.228,171.198 215.5,174.5C 212.849,172.35 210.349,170.017 208,167.5C 208.828,170.461 209.995,173.461 211.5,176.5C 211.167,176.833 210.833,177.167 210.5,177.5C 207.113,173.393 204.78,168.726 203.5,163.5C 204.822,163.67 205.989,163.337 207,162.5C 209,164.5 211,166.5 213,168.5C 213.188,166.524 213.021,164.524 212.5,162.5C 212.803,160.886 213.47,159.552 214.5,158.5 Z"/></g>
<g><path style="opacity:1" fill="#ecf100" d="M 290.5,157.5 C 292.952,159.45 292.952,161.616 290.5,164C 292.345,165.128 294.345,165.628 296.5,165.5C 296.248,162.068 297.581,161.068 300.5,162.5C 298.769,166.962 296.769,171.295 294.5,175.5C 293.5,175.167 292.833,174.5 292.5,173.5C 293.074,171.941 293.74,170.441 294.5,169C 293.109,167.98 291.609,167.147 290,166.5C 289,168.5 288,170.5 287,172.5C 286.075,171.953 285.242,171.287 284.5,170.5C 286.788,166.26 288.788,161.927 290.5,157.5 Z"/></g>
<g><path style="opacity:1" fill="#8fae00" d="M 254.5,151.5 C 255.167,170.167 255.833,170.167 256.5,151.5C 257.487,156.305 257.821,161.305 257.5,166.5C 256.167,166.5 254.833,166.5 253.5,166.5C 253.179,161.305 253.513,156.305 254.5,151.5 Z"/></g>
<g><path style="opacity:1" fill="#feff00" d="M 254.5,151.5 C 255.167,151.5 255.833,151.5 256.5,151.5C 255.833,170.167 255.167,170.167 254.5,151.5 Z"/></g>
<g><path style="opacity:1" fill="#127200" d="M 227.5,158.5 C 228.479,159.765 229.479,161.099 230.5,162.5C 229.675,163.386 228.675,163.719 227.5,163.5C 227.5,161.833 227.5,160.167 227.5,158.5 Z"/></g>
<g><path style="opacity:1" fill="#ecf100" d="M 196.5,168.5 C 198.017,168.511 199.184,169.177 200,170.5C 202.167,173.5 204.333,176.5 206.5,179.5C 205.635,180.583 204.635,180.749 203.5,180C 198.31,172.499 197.31,173.166 200.5,182C 200.167,182.833 199.833,183.667 199.5,184.5C 189.444,176.018 188.444,176.685 196.5,186.5C 196.192,187.308 195.692,187.975 195,188.5C 191.921,184.676 189.088,180.676 186.5,176.5C 187.328,175.585 188.328,174.919 189.5,174.5C 191.799,175.635 193.966,176.968 196,178.5C 196.154,175.937 195.654,173.437 194.5,171C 195.056,169.989 195.722,169.156 196.5,168.5 Z"/></g>
<g><path style="opacity:1" fill="#eaef00" d="M 311.5,168.5 C 312.478,168.811 313.145,169.478 313.5,170.5C 311.861,171.916 311.027,173.583 311,175.5C 314.152,173.325 317.319,173.158 320.5,175C 318.564,175.813 316.564,176.313 314.5,176.5C 314.704,180.22 313.704,183.553 311.5,186.5C 310.5,186.167 309.833,185.5 309.5,184.5C 312.956,176.293 311.29,175.293 304.5,181.5C 304.167,181 303.833,180.5 303.5,180C 305.982,176.021 308.649,172.188 311.5,168.5 Z"/></g>
<g><path style="opacity:1" fill="#fafa0a" d="M 360.5,289.5 C 372.18,293.227 383.847,297.06 395.5,301C 398.148,303.32 400.481,305.986 402.5,309C 398.594,310.434 394.594,310.767 390.5,310C 379.258,305.21 367.924,300.71 356.5,296.5C 349.04,292.943 341.373,289.609 333.5,286.5C 333.167,286.833 332.833,287.167 332.5,287.5C 340.326,291.553 348.326,295.219 356.5,298.5C 375.258,306.377 393.924,314.544 412.5,323C 419.73,330.771 417.73,333.438 406.5,331C 388.807,322.153 371.14,313.32 353.5,304.5C 345.615,300.641 337.782,296.641 330,292.5C 336.447,297.995 343.947,302.328 352.5,305.5C 376.946,318.892 401.613,332.059 426.5,345C 432.046,349.716 436.712,355.216 440.5,361.5C 432.966,362.241 425.632,361.074 418.5,358C 394.949,342.942 371.282,328.109 347.5,313.5C 340.475,308.032 333.142,303.699 325.5,300.5C 332.851,305.526 340.185,310.526 347.5,315.5C 364.014,326.504 380.681,337.337 397.5,348C 399.167,351 400.833,354 402.5,357C 399.167,357.667 395.833,357.667 392.5,357C 376.622,344.949 360.622,333.116 344.5,321.5C 337.158,315.732 329.658,310.066 322,304.5C 321.837,306.387 322.671,307.887 324.5,309C 330.377,313.717 336.377,318.217 342.5,322.5C 351.736,330.464 361.403,337.964 371.5,345C 373.902,347.703 375.235,350.87 375.5,354.5C 372.813,354.664 370.146,354.497 367.5,354C 357.64,345.635 347.973,337.135 338.5,328.5C 331.545,322.552 324.545,316.552 317.5,310.5C 291.923,336.386 261.59,344.22 226.5,334C 213.103,328.934 201.603,321.1 192,310.5C 185.304,316.366 178.804,322.366 172.5,328.5C 162.408,336.419 152.742,344.919 143.5,354C 139.848,354.889 136.182,355.222 132.5,355C 133.639,351.917 134.972,348.917 136.5,346C 146.75,338.388 156.75,330.555 166.5,322.5C 173.458,317.381 180.291,312.048 187,306.5C 187.667,305.833 187.667,305.167 187,304.5C 179.491,309.825 172.324,315.492 165.5,321.5C 149.537,332.493 133.87,343.993 118.5,356C 114.974,357.337 111.308,357.837 107.5,357.5C 108.134,354.063 109.467,350.896 111.5,348C 128.319,337.337 144.986,326.504 161.5,315.5C 168.815,310.526 176.149,305.526 183.5,300.5C 175.858,303.699 168.525,308.032 161.5,313.5C 136.528,328.989 111.528,344.489 86.5,360C 80.7787,360.59 75.1121,361.423 69.5,362.5C 71.6626,356.438 75.3293,350.938 80.5,346C 106.054,332.726 131.387,319.226 156.5,305.5C 165.053,302.328 172.553,297.995 179,292.5C 171.218,296.641 163.385,300.641 155.5,304.5C 137.86,313.32 120.193,322.153 102.5,331C 98.7887,331.825 95.122,331.659 91.5,330.5C 93.0426,327.914 94.7093,325.414 96.5,323C 115.076,314.544 133.742,306.377 152.5,298.5C 160.674,295.219 168.674,291.553 176.5,287.5C 168.441,289.64 160.441,292.64 152.5,296.5C 139.965,301.349 127.465,306.349 115,311.5C 112.865,310.873 110.698,310.373 108.5,310C 108.043,309.586 107.709,309.086 107.5,308.5C 109.288,306.424 110.954,304.257 112.5,302C 124.899,297.923 137.232,293.756 149.5,289.5C 158.257,287.196 166.591,284.029 174.5,280C 172.712,274.971 171.546,269.804 171,264.5C 168.469,223.048 185.969,193.548 223.5,176C 253.324,165.685 280.991,169.685 306.5,188C 335.306,212.921 344.64,243.754 334.5,280.5C 343.189,283.507 351.856,286.507 360.5,289.5 Z"/></g>
<g><path style="opacity:1" fill="#f7f71a" d="M 155.5,204.5 C 155.008,206.819 154.008,208.819 152.5,210.5C 133.742,202.623 115.076,194.456 96.5,186C 89.2702,178.229 91.2702,175.562 102.5,178C 120.193,186.847 137.86,195.68 155.5,204.5 Z"/></g>
<g><path style="opacity:1" fill="#f7f71a" d="M 356.5,210.5 C 354.992,208.819 353.992,206.819 353.5,204.5C 371.14,195.68 388.807,186.847 406.5,178C 410.211,177.175 413.878,177.341 417.5,178.5C 415.957,181.086 414.291,183.586 412.5,186C 393.845,194.271 375.179,202.437 356.5,210.5 Z"/></g>
<g><path style="opacity:1" fill="#ff0d00" d="M 243.5,178.5 C 268.837,175.855 290.504,183.355 308.5,201C 303.592,198.832 298.592,196.499 293.5,194C 255.93,183.707 228.43,195.873 211,230.5C 200.887,261.823 208.72,287.657 234.5,308C 257.954,321.599 281.62,321.932 305.5,309C 307.96,307.542 310.127,305.709 312,303.5C 301.558,316.838 287.725,325.338 270.5,329C 230.379,335.025 201.546,319.859 184,283.5C 171.159,245.027 180.993,213.861 213.5,190C 222.877,184.268 232.877,180.434 243.5,178.5 Z"/></g>
<g><path style="opacity:1" fill="#e9ef00" d="M 325.5,180.5 C 327.196,180.685 328.529,181.519 329.5,183C 327.127,187.581 324.627,192.081 322,196.5C 321.13,195.892 320.63,195.059 320.5,194C 321.761,191.197 320.928,189.03 318,187.5C 316.182,189.645 314.682,189.645 313.5,187.5C 317.563,185.14 321.563,182.807 325.5,180.5 Z"/></g>
<g><path style="opacity:1" fill="#f0f300" d="M 178.5,183.5 C 183.712,185.104 188.712,187.271 193.5,190C 192.892,190.87 192.059,191.37 191,191.5C 187.999,190.275 185.832,191.275 184.5,194.5C 185.645,195.891 185.645,197.224 184.5,198.5C 180.446,194.096 178.446,189.096 178.5,183.5 Z"/></g>
<g><path style="opacity:1" fill="#007500" d="M 323.5,184.5 C 324.522,185.892 324.189,187.225 322.5,188.5C 321.692,188.192 321.025,187.692 320.5,187C 321.571,186.148 322.571,185.315 323.5,184.5 Z"/></g>
<g><path style="opacity:1" fill="#197a00" d="M 180.5,188.5 C 182.263,187.666 183.93,188.166 185.5,190C 183.236,191.88 181.57,191.38 180.5,188.5 Z"/></g>
<g><path style="opacity:1" fill="#eff300" d="M 334.5,189.5 C 336.085,190.002 336.585,191.002 336,192.5C 332.996,194.674 330.163,197.008 327.5,199.5C 328.145,200.646 328.978,201.646 330,202.5C 330.749,203.635 330.583,204.635 329.5,205.5C 327.273,203.393 325.273,201.06 323.5,198.5C 327.421,195.72 331.087,192.72 334.5,189.5 Z"/></g>
<g><path style="opacity:1" fill="#ebf000" d="M 170.5,193.5 C 175.105,195.471 179.438,197.971 183.5,201C 182.953,201.925 182.287,202.758 181.5,203.5C 180.126,202.289 178.626,201.289 177,200.5C 175.726,201.535 174.56,202.702 173.5,204C 175.09,205.046 176.59,206.213 178,207.5C 178.563,208.725 178.23,209.725 177,210.5C 173.333,207.833 169.667,205.167 166,202.5C 165.251,201.365 165.417,200.365 166.5,199.5C 168.001,200.752 169.668,201.752 171.5,202.5C 172.382,201.24 173.382,200.074 174.5,199C 173.016,197.426 171.349,196.093 169.5,195C 170.056,194.617 170.389,194.117 170.5,193.5 Z"/></g>
<g><path style="opacity:1" fill="#f6f61c" d="M 151.5,212.5 C 151.448,215.346 150.448,217.68 148.5,219.5C 136.82,215.773 125.153,211.94 113.5,208C 110.852,205.68 108.519,203.014 106.5,200C 109.105,198.979 111.772,198.145 114.5,197.5C 126.782,202.703 139.115,207.703 151.5,212.5 Z"/></g>
<g><path style="opacity:1" fill="#f5f51e" d="M 360.5,218.5 C 358.386,217.216 357.386,215.216 357.5,212.5C 369.597,207.41 381.764,202.41 394,197.5C 396.4,198.044 398.733,198.711 401,199.5C 401.667,200.167 401.667,200.833 401,201.5C 399.491,203.71 397.658,205.543 395.5,207C 383.982,211.34 372.315,215.173 360.5,218.5 Z"/></g>
<g><path style="opacity:1" fill="#ecf000" d="M 340.5,200.5 C 341.5,200.5 342.5,200.5 343.5,200.5C 343.719,201.675 343.386,202.675 342.5,203.5C 338.714,206.059 334.714,208.059 330.5,209.5C 330.281,208.325 330.614,207.325 331.5,206.5C 334.738,204.725 337.738,202.725 340.5,200.5 Z"/></g>
<g><path style="opacity:1" fill="#e4eb00" d="M 161.5,207.5 C 166.381,208.024 170.548,210.024 174,213.5C 174.877,217.745 173.21,220.412 169,221.5C 165.106,219.803 161.273,217.97 157.5,216C 158.047,215.075 158.713,214.242 159.5,213.5C 163.147,215.995 167.147,217.329 171.5,217.5C 171.762,216.022 171.429,214.689 170.5,213.5C 166.851,212.196 163.851,210.196 161.5,207.5 Z"/></g>
<g><path style="opacity:1" fill="#ecf100" d="M 343.5,207.5 C 344.978,207.238 346.311,207.571 347.5,208.5C 346.221,210.146 344.555,211.313 342.5,212C 345.47,212.738 348.136,213.904 350.5,215.5C 348.577,216.308 346.577,216.808 344.5,217C 337.333,224.549 336.333,224.049 341.5,215.5C 339.516,214.294 337.516,214.294 335.5,215.5C 334.5,215.167 333.833,214.5 333.5,213.5C 336.897,211.474 340.23,209.474 343.5,207.5 Z"/></g>
<g><path style="opacity:1" fill="#1b7b00" d="M 266.5,208.5 C 268.199,208.34 269.866,208.506 271.5,209C 271.043,209.414 270.709,209.914 270.5,210.5C 263.448,212.86 256.781,216.026 250.5,220C 248.386,221.498 247.886,223.331 249,225.5C 247.157,229.012 244.824,229.345 242,226.5C 242.017,224.432 243.017,222.766 245,221.5C 245.414,221.957 245.914,222.291 246.5,222.5C 247.803,220.063 249.47,217.896 251.5,216C 256.592,213.454 261.592,210.954 266.5,208.5 Z"/></g>
<g><path style="opacity:1" fill="#1f7d00" d="M 280.5,209.5 C 285.062,209.279 285.728,210.779 282.5,214C 271.303,216.17 261.47,221.003 253,228.5C 252.803,225.449 253.969,222.949 256.5,221C 264.195,216.317 272.195,212.484 280.5,209.5 Z"/></g>
<g><path style="opacity:1" fill="#f4f320" d="M 147.5,221.5 C 147.804,222.15 148.137,222.817 148.5,223.5C 147.628,225.45 146.961,227.45 146.5,229.5C 139.389,228.578 132.389,227.078 125.5,225C 123.595,223.185 121.928,221.185 120.5,219C 122.833,217.833 125.167,216.667 127.5,215.5C 134.089,217.813 140.755,219.813 147.5,221.5 Z"/></g>
<g><path style="opacity:1" fill="#f5f41e" d="M 364.5,228.5 C 363.504,228.586 362.671,228.252 362,227.5C 361.187,225.564 360.687,223.564 360.5,221.5C 367.295,219.426 374.128,217.426 381,215.5C 388.859,216.947 389.525,219.947 383,224.5C 376.941,226.39 370.774,227.723 364.5,228.5 Z"/></g>
<g><path style="opacity:1" fill="#eff300" d="M 338.5,224.5 C 343.833,224.5 349.167,224.5 354.5,224.5C 354.657,225.873 354.49,227.207 354,228.5C 350.581,231.751 346.747,234.418 342.5,236.5C 341.166,234.182 341.832,232.515 344.5,231.5C 343.902,230.205 343.402,228.872 343,227.5C 340.974,227.085 339.474,226.085 338.5,224.5 Z"/></g>
<g><path style="opacity:1" fill="#f6f51c" d="M 367.5,238.5 C 366.167,238.5 364.833,238.5 363.5,238.5C 363.5,236.167 363.5,233.833 363.5,231.5C 376.191,228.962 388.857,226.295 401.5,223.5C 404.54,224.68 407.206,226.347 409.5,228.5C 407.224,230.949 404.558,232.782 401.5,234C 390.189,235.735 378.855,237.235 367.5,238.5 Z"/></g>
<g><path style="opacity:1" fill="#f1f025" d="M 145.5,232.5 C 145.802,235.059 145.468,237.393 144.5,239.5C 131.477,237.901 118.477,236.068 105.5,234C 103.624,231.954 101.624,230.121 99.5,228.5C 102.17,226.884 105.004,225.551 108,224.5C 120.551,227.11 133.051,229.776 145.5,232.5 Z"/></g>
<g><path style="opacity:1" fill="#167b00" d="M 234.5,224.5 C 240.241,224.645 241.241,226.478 237.5,230C 232.541,230.232 231.541,228.399 234.5,224.5 Z"/></g>
<g><path style="opacity:1" fill="#147d00" d="M 263.5,222.5 C 265.708,223.894 267.208,225.894 268,228.5C 269.713,233.396 271.046,238.396 272,243.5C 274.043,241.792 275.71,239.792 277,237.5C 277.667,239.5 277.667,241.5 277,243.5C 275.296,246.173 274.129,249.007 273.5,252C 273.53,259.96 275.364,267.46 279,274.5C 280.019,275.687 281.186,276.687 282.5,277.5C 284.446,271.277 288.446,266.943 294.5,264.5C 292.167,264.167 289.833,263.833 287.5,263.5C 284.094,263.296 280.928,263.962 278,265.5C 277.103,262.51 276.269,259.51 275.5,256.5C 280.416,249.534 286.749,244.201 294.5,240.5C 295.324,237.215 295.824,233.882 296,230.5C 302.722,226.175 308.722,227.175 314,233.5C 314.21,236.269 313.377,238.769 311.5,241C 308.372,241.875 305.372,243.042 302.5,244.5C 300.62,250.056 298.787,250.389 297,245.5C 291.607,248.226 286.774,251.726 282.5,256C 296.503,256.796 310.503,257.63 324.5,258.5C 322.833,260.5 321.167,262.5 319.5,264.5C 308.724,266.067 298.557,269.4 289,274.5C 289.388,278.409 291.555,281.075 295.5,282.5C 296.48,285.086 296.813,287.753 296.5,290.5C 287.472,289.738 280.306,285.738 275,278.5C 273.326,274.799 271.659,271.132 270,267.5C 265.114,275.714 258.281,281.881 249.5,286C 237.8,290.322 231.467,286.322 230.5,274C 230.26,271.109 231.093,268.609 233,266.5C 232.473,275.963 236.973,279.796 246.5,278C 255.131,274.438 262.631,269.271 269,262.5C 269.388,259.151 269.221,255.817 268.5,252.5C 259.298,253.991 253.464,250.324 251,241.5C 250.275,240.941 249.442,240.608 248.5,240.5C 245.932,241.559 243.765,243.226 242,245.5C 239.301,252.451 236.135,259.117 232.5,265.5C 228.802,267.195 225.968,266.195 224,262.5C 221.719,254.673 222.053,247.006 225,239.5C 224.582,244.465 224.582,249.465 225,254.5C 226.519,259.277 229.186,260.277 233,257.5C 235.727,251.046 238.727,244.712 242,238.5C 244.925,233.938 248.758,232.771 253.5,235C 255.444,238.61 257.777,241.943 260.5,245C 262.345,246.128 264.345,246.628 266.5,246.5C 265.317,241.298 263.983,236.132 262.5,231C 263.031,228.183 263.364,225.35 263.5,222.5 Z"/></g>
<g><path style="opacity:1" fill="#207d00" d="M 301.5,209.5 C 302.5,209.5 303.5,209.5 304.5,209.5C 304.199,213.247 304.866,216.747 306.5,220C 305.275,224.726 304.442,224.559 304,219.5C 300.655,225.175 295.822,229.008 289.5,231C 286.881,231.151 284.547,231.985 282.5,233.5C 279.583,232.934 276.583,232.934 273.5,233.5C 273.656,230.934 273.322,228.434 272.5,226C 273.27,224.225 274.437,222.725 276,221.5C 275.626,223.769 275.626,226.102 276,228.5C 276.414,228.957 276.914,229.291 277.5,229.5C 278.091,226.36 278.924,223.36 280,220.5C 281.062,223.029 281.895,225.696 282.5,228.5C 283.091,225.36 283.924,222.36 285,219.5C 286.337,223.341 286.837,227.008 286.5,230.5C 292.557,227.931 297.557,224.097 301.5,219C 298.906,215.858 298.906,212.692 301.5,209.5 Z"/></g>
<g><path style="opacity:1" fill="#438800" d="M 345.5,226.5 C 352.812,225.771 353.312,227.105 347,230.5C 346.209,229.255 345.709,227.922 345.5,226.5 Z"/></g>
<g><path style="opacity:1" fill="#e8ee00" d="M 155.5,221.5 C 159.763,222.984 164.096,224.317 168.5,225.5C 169.833,226.5 169.833,227.5 168.5,228.5C 165.898,227.346 163.232,226.846 160.5,227C 163.341,228.586 166.007,230.42 168.5,232.5C 165.253,233.65 161.92,234.483 158.5,235C 160.788,235.822 163.122,236.489 165.5,237C 166.993,238.156 166.826,238.99 165,239.5C 160.877,238.261 156.71,237.261 152.5,236.5C 152.5,234.833 152.5,233.167 152.5,231.5C 155.85,231.665 159.183,231.498 162.5,231C 160.167,229.5 157.833,228 155.5,226.5C 154.566,224.905 154.566,223.239 155.5,221.5 Z"/></g>
<g><path style="opacity:1" fill="#f0f400" d="M 299.5,234.5 C 301.429,234.231 303.095,234.731 304.5,236C 301.86,238.338 300.193,237.838 299.5,234.5 Z"/></g>
<g><path style="opacity:1" fill="#f4f420" d="M 144.5,241.5 C 144.5,243.5 144.5,245.5 144.5,247.5C 141.5,247.5 138.5,247.5 135.5,247.5C 118.158,246.916 100.825,246.083 83.5,245C 81.1667,243.5 78.8333,242 76.5,240.5C 75.2888,239.726 75.2888,238.893 76.5,238C 79.172,236.443 82.0053,235.276 85,234.5C 104.824,236.887 124.657,239.22 144.5,241.5 Z"/></g>
<g><path style="opacity:1" fill="#f3f322" d="M 372.5,247.5 C 369.833,247.5 367.167,247.5 364.5,247.5C 364.5,245.5 364.5,243.5 364.5,241.5C 383.982,239.132 403.482,236.798 423,234.5C 436.609,237.669 436.442,241.169 422.5,245C 405.847,246.166 389.18,246.999 372.5,247.5 Z"/></g>
<g><path style="opacity:1" fill="#e9ef00" d="M 347.5,237.5 C 350.833,237.5 354.167,237.5 357.5,237.5C 358.99,241.229 358.657,244.729 356.5,248C 350.719,249.721 348.052,247.555 348.5,241.5C 346.5,241.5 344.5,241.5 342.5,241.5C 342.5,240.5 342.5,239.5 342.5,238.5C 344.415,238.784 346.081,238.451 347.5,237.5 Z"/></g>
<g><path style="opacity:1" fill="#1a7600" d="M 351.5,240.5 C 352.833,240.5 354.167,240.5 355.5,240.5C 355.5,242.167 355.5,243.833 355.5,245.5C 354.167,245.5 352.833,245.5 351.5,245.5C 351.5,243.833 351.5,242.167 351.5,240.5 Z"/></g>
<g><path style="opacity:1" fill="#f9f916" d="M 128.5,249.5 C 133.305,250.487 138.305,250.821 143.5,250.5C 143.5,253.167 143.5,255.833 143.5,258.5C 137.974,258.179 132.64,258.512 127.5,259.5C 102.848,260.816 78.181,261.316 53.5,261C 48.7045,259.102 44.0378,256.935 39.5,254.5C 44.0378,252.065 48.7045,249.898 53.5,248C 78.513,247.695 103.513,248.195 128.5,249.5 Z"/></g>
<g><path style="opacity:1" fill="#f8f818" d="M 382.5,259.5 C 377.025,258.511 371.358,258.178 365.5,258.5C 365.5,255.5 365.5,252.5 365.5,249.5C 395.493,248.368 425.493,247.868 455.5,248C 459.542,249.737 463.542,251.57 467.5,253.5C 468.833,254.167 468.833,254.833 467.5,255.5C 463.381,257.059 459.381,258.893 455.5,261C 431.149,261.425 406.816,260.925 382.5,259.5 Z"/></g>
<g><path style="opacity:1" fill="#e5ec00" d="M 159.5,247.5 C 165.567,249.064 167.067,252.73 164,258.5C 162.989,259.337 161.822,259.67 160.5,259.5C 161.64,256.975 162.307,254.308 162.5,251.5C 161.5,251.5 160.5,251.5 159.5,251.5C 159.528,258.211 156.695,260.211 151,257.5C 150.064,254.208 150.564,251.208 152.5,248.5C 153.057,250.718 153.057,253.051 152.5,255.5C 153.5,255.5 154.5,255.5 155.5,255.5C 155.526,252.038 156.859,249.371 159.5,247.5 Z"/></g>
<g><path style="opacity:1" fill="#eff300" d="M 343.5,250.5 C 348.58,251.541 353.58,252.874 358.5,254.5C 358.759,257.48 357.426,259.313 354.5,260C 351.471,260.732 348.471,261.565 345.5,262.5C 343.122,260.47 343.789,259.47 347.5,259.5C 347.799,257.396 347.466,255.396 346.5,253.5C 344.787,253.121 343.787,252.121 343.5,250.5 Z"/></g>
<g><path style="opacity:1" fill="#1d7700" d="M 349.5,254.5 C 354.399,255.53 354.566,256.864 350,258.5C 349.51,257.207 349.343,255.873 349.5,254.5 Z"/></g>
<g><path style="opacity:1" fill="#9d9e5b" d="M 127.5,259.5 C 132.64,258.512 137.974,258.179 143.5,258.5C 144.404,259.209 144.737,260.209 144.5,261.5C 141.167,261.5 137.833,261.5 134.5,261.5C 137.305,260.681 140.305,260.181 143.5,260C 138.177,259.501 132.844,259.334 127.5,259.5 Z"/></g>
<g><path style="opacity:1" fill="#1d7d00" d="M 260.5,257.5 C 267.864,258.045 268.364,260.045 262,263.5C 257.948,262.348 257.448,260.348 260.5,257.5 Z"/></g>
<g><path style="opacity:1" fill="#1b7c00" d="M 251.5,259.5 C 253.593,260.045 255.593,260.878 257.5,262C 256.274,263.635 254.941,265.135 253.5,266.5C 251.833,265.667 250.167,264.833 248.5,264C 249.883,262.729 250.883,261.229 251.5,259.5 Z"/></g>
<g><path style="opacity:1" fill="#f3f321" d="M 134.5,261.5 C 137.833,261.5 141.167,261.5 144.5,261.5C 144.5,263.5 144.5,265.5 144.5,267.5C 124.669,269.796 104.835,272.129 85,274.5C 81.5122,273.673 78.3456,272.173 75.5,270C 78.1667,268 80.8333,266 83.5,264C 100.491,262.912 117.491,262.079 134.5,261.5 Z"/></g>
<g><path style="opacity:1" fill="#f4f321" d="M 373.5,261.5 C 391.561,261.788 409.561,262.955 427.5,265C 429.641,266.308 431.641,267.808 433.5,269.5C 430.758,271.815 427.591,273.482 424,274.5C 404.174,272.126 384.34,269.793 364.5,267.5C 364.5,266.167 364.5,264.833 364.5,263.5C 367.145,261.758 370.145,261.091 373.5,261.5 Z"/></g>
<g><path style="opacity:1" fill="#eaef00" d="M 163.5,261.5 C 164.497,261.47 165.164,261.97 165.5,263C 164.831,264.847 163.497,266.014 161.5,266.5C 160.571,267.689 160.238,269.022 160.5,270.5C 162.5,270.5 164.5,270.5 166.5,270.5C 166.5,271.5 166.5,272.5 166.5,273.5C 161.493,273.751 156.493,274.084 151.5,274.5C 150.802,271.104 150.802,267.771 151.5,264.5C 154.167,261.833 156.833,261.833 159.5,264.5C 160.901,263.479 162.235,262.479 163.5,261.5 Z"/></g>
<g><path style="opacity:1" fill="#acaf4d" d="M 365.5,258.5 C 371.358,258.178 377.025,258.511 382.5,259.5C 376.824,259.334 371.157,259.501 365.5,260C 368.365,260.183 371.031,260.683 373.5,261.5C 370.145,261.091 367.145,261.758 364.5,263.5C 364.216,261.585 364.549,259.919 365.5,258.5 Z"/></g>
<g><path style="opacity:1" fill="#f0f400" d="M 345.5,264.5 C 348.018,265.759 347.852,267.093 345,268.5C 344.28,270.112 344.446,271.612 345.5,273C 346.449,273.617 347.282,273.451 348,272.5C 348.542,266.836 351.375,265.169 356.5,267.5C 358.285,271.152 357.618,274.152 354.5,276.5C 354.167,276 353.833,275.5 353.5,275C 354.856,273.433 355.523,271.6 355.5,269.5C 354.448,269.351 353.448,269.517 352.5,270C 351.46,274.394 348.793,276.394 344.5,276C 341.681,271.899 342.014,268.065 345.5,264.5 Z"/></g>
<g><path style="opacity:1" fill="#107800" d="M 154.5,265.5 C 155.496,265.414 156.329,265.748 157,266.5C 157.494,268.134 157.66,269.801 157.5,271.5C 156.167,271.5 154.833,271.5 153.5,271.5C 153.325,269.379 153.659,267.379 154.5,265.5 Z"/></g>
<g><path style="opacity:1" fill="#f2f124" d="M 140.5,270.5 C 142.167,270.5 143.833,270.5 145.5,270.5C 145.702,272.95 145.369,275.283 144.5,277.5C 132.142,280.006 119.809,282.672 107.5,285.5C 104.46,284.32 101.794,282.653 99.5,280.5C 101.65,278.851 103.65,277.018 105.5,275C 117.108,272.984 128.775,271.484 140.5,270.5 Z"/></g>
<g><path style="opacity:1" fill="#f5f41f" d="M 369.5,270.5 C 380.855,271.765 392.189,273.265 403.5,275C 405.376,277.046 407.376,278.879 409.5,280.5C 406.842,281.829 404.176,283.162 401.5,284.5C 388.779,281.956 376.112,279.289 363.5,276.5C 362.5,271.5 364.5,269.5 369.5,270.5 Z"/></g>
<g><path style="opacity:1" fill="#358300" d="M 302.5,277.5 C 303.29,276.206 304.29,275.039 305.5,274C 304.5,273.667 303.5,273.333 302.5,273C 304.833,271 307.167,271 309.5,273C 307.266,274.75 304.932,276.25 302.5,277.5 Z"/></g>
<g><path style="opacity:1" fill="#f3f320" d="M 362.5,279.5 C 369.611,280.422 376.611,281.922 383.5,284C 385.405,285.815 387.072,287.815 388.5,290C 386.232,291.552 383.732,292.385 381,292.5C 374.716,291.221 368.55,289.554 362.5,287.5C 361.909,286.849 361.243,286.182 360.5,285.5C 361.05,283.343 361.717,281.343 362.5,279.5 Z"/></g>
<g><path style="opacity:1" fill="#f2f221" d="M 146.5,279.5 C 147.774,281.993 148.44,284.659 148.5,287.5C 141.652,289.393 134.819,291.393 128,293.5C 119.9,291.728 119.4,288.561 126.5,284C 133.181,282.496 139.847,280.996 146.5,279.5 Z"/></g>
<g><path style="opacity:1" fill="#227d00" d="M 268.5,277.5 C 269.434,278.568 269.768,279.901 269.5,281.5C 261.422,284.729 254.922,290.063 250,297.5C 249.333,295.833 249.333,294.167 250,292.5C 255.23,286.162 261.396,281.162 268.5,277.5 Z"/></g>
<g><path style="opacity:1" fill="#408600" d="M 302.5,277.5 C 302.5,278.833 302.5,280.167 302.5,281.5C 305.252,281.422 307.918,281.255 310.5,281C 306.871,285.449 303.537,285.449 300.5,281C 300.808,279.541 301.475,278.374 302.5,277.5 Z"/></g>
<g><path style="opacity:1" fill="#348100" d="M 272.5,283.5 C 276.945,287.482 277.445,291.815 274,296.5C 272.124,295.381 271.291,293.714 271.5,291.5C 272.5,291.5 273.5,291.5 274.5,291.5C 274.416,288.673 273.75,286.006 272.5,283.5 Z"/></g>
<g><path style="opacity:1" fill="#1d7800" d="M 152.5,298.5 C 152.5,297.833 152.5,297.167 152.5,296.5C 160.441,292.64 168.441,289.64 176.5,287.5C 168.674,291.553 160.674,295.219 152.5,298.5 Z"/></g>
<g><path style="opacity:1" fill="#1e7800" d="M 356.5,296.5 C 356.5,297.167 356.5,297.833 356.5,298.5C 348.326,295.219 340.326,291.553 332.5,287.5C 332.833,287.167 333.167,286.833 333.5,286.5C 341.373,289.609 349.04,292.943 356.5,296.5 Z"/></g>
<g><path style="opacity:1" fill="#157501" d="M 156.5,305.5 C 155.833,305.5 155.5,305.167 155.5,304.5C 163.385,300.641 171.218,296.641 179,292.5C 172.553,297.995 165.053,302.328 156.5,305.5 Z"/></g>
<g><path style="opacity:1" fill="#1d7702" d="M 353.5,304.5 C 353.5,305.167 353.167,305.5 352.5,305.5C 343.947,302.328 336.447,297.995 330,292.5C 337.782,296.641 345.615,300.641 353.5,304.5 Z"/></g>
<g><path style="opacity:1" fill="#277801" d="M 347.5,313.5 C 347.5,314.167 347.5,314.833 347.5,315.5C 340.185,310.526 332.851,305.526 325.5,300.5C 333.142,303.699 340.475,308.032 347.5,313.5 Z"/></g>
<g><path style="opacity:1" fill="#257701" d="M 161.5,315.5 C 161.5,314.833 161.5,314.167 161.5,313.5C 168.525,308.032 175.858,303.699 183.5,300.5C 176.149,305.526 168.815,310.526 161.5,315.5 Z"/></g>
<g><path style="opacity:1" fill="#2b7c03" d="M 344.5,321.5 C 343.508,321.328 342.842,321.662 342.5,322.5C 336.377,318.217 330.377,313.717 324.5,309C 322.671,307.887 321.837,306.387 322,304.5C 329.658,310.066 337.158,315.732 344.5,321.5 Z"/></g>
<g><path style="opacity:1" fill="#117d01" d="M 338.5,328.5 C 337.167,328.5 336.5,329.167 336.5,330.5C 333.911,331.419 331.911,333.086 330.5,335.5C 329.5,335.833 328.833,336.5 328.5,337.5C 325.891,338.443 323.891,340.11 322.5,342.5C 321.662,342.842 321.328,343.508 321.5,344.5C 320.883,344.389 320.383,344.056 320,343.5C 318.333,344.733 316.833,346.067 315.5,347.5C 314.662,347.842 314.328,348.508 314.5,349.5C 311.589,349.265 308.923,350.265 306.5,352.5C 305.833,352.833 305.167,353.167 304.5,353.5C 302.181,353.992 300.181,354.992 298.5,356.5C 297.508,356.328 296.842,356.662 296.5,357.5C 293.784,357.386 291.784,358.386 290.5,360.5C 289.5,359.167 288.5,359.167 287.5,360.5C 284.733,360.858 282.067,361.525 279.5,362.5C 278.508,362.328 277.842,362.662 277.5,363.5C 274.615,363.194 271.948,363.527 269.5,364.5C 268.833,364.5 268.167,364.5 267.5,364.5C 265.5,364.5 263.5,364.5 261.5,364.5C 260.209,364.263 259.209,364.596 258.5,365.5C 255.5,365.5 252.5,365.5 249.5,365.5C 248.833,368.167 248.167,370.833 247.5,373.5C 247.5,370.5 247.5,367.5 247.5,364.5C 245.5,364.5 243.5,364.5 241.5,364.5C 240.833,364.5 240.167,364.5 239.5,364.5C 237.393,363.532 235.059,363.198 232.5,363.5C 231.791,362.596 230.791,362.263 229.5,362.5C 227.254,362.064 225.087,361.397 223,360.5C 222.722,361.416 222.222,362.082 221.5,362.5C 221.5,361.167 220.833,360.5 219.5,360.5C 217.68,358.552 215.346,357.552 212.5,357.5C 212.158,356.662 211.492,356.328 210.5,356.5C 208.819,354.992 206.819,353.992 204.5,353.5C 203.833,353.167 203.167,352.833 202.5,352.5C 200.077,350.265 197.411,349.265 194.5,349.5C 194.672,348.508 194.338,347.842 193.5,347.5C 192.167,346.067 190.667,344.733 189,343.5C 188.617,344.056 188.117,344.389 187.5,344.5C 187.672,343.508 187.338,342.842 186.5,342.5C 185.292,339.956 183.292,338.622 180.5,338.5C 180.5,337.167 179.833,336.5 178.5,336.5C 177.581,333.911 175.914,331.911 173.5,330.5C 173.167,329.833 172.833,329.167 172.5,328.5C 178.804,322.366 185.304,316.366 192,310.5C 201.603,321.1 213.103,328.934 226.5,334C 261.59,344.22 291.923,336.386 317.5,310.5C 324.545,316.552 331.545,322.552 338.5,328.5 Z"/></g>
<g><path style="opacity:1" fill="#257b02" d="M 166.5,322.5 C 166.5,321.833 166.167,321.5 165.5,321.5C 172.324,315.492 179.491,309.825 187,304.5C 187.667,305.167 187.667,305.833 187,306.5C 180.291,312.048 173.458,317.381 166.5,322.5 Z"/></g>
<g><path style="opacity:1" fill="#ecf100" d="M 313.5,322.5 C 317.624,325.534 320.957,329.368 323.5,334C 322.892,334.87 322.059,335.37 321,335.5C 317.867,334.162 314.701,333.329 311.5,333C 314.157,335.156 315.49,337.656 315.5,340.5C 311.793,337.424 308.793,333.758 306.5,329.5C 306.833,328.5 307.5,327.833 308.5,327.5C 311.415,328.976 314.415,329.81 317.5,330C 315.46,327.815 314.126,325.315 313.5,322.5 Z"/></g>
<g><path style="opacity:1" fill="#ecf100" d="M 195.5,323.5 C 196.995,323.415 197.995,324.081 198.5,325.5C 195.925,328.319 193.592,331.319 191.5,334.5C 192.5,336.167 193.833,337.5 195.5,338.5C 195.192,339.308 194.692,339.975 194,340.5C 191.357,339.024 189.19,337.024 187.5,334.5C 190.191,330.815 192.858,327.148 195.5,323.5 Z"/></g>
<g><path style="opacity:1" fill="#f5f41f" d="M 336.5,330.5 C 341.497,335.329 346.664,339.996 352,344.5C 352.497,347.146 352.664,349.813 352.5,352.5C 349.784,352.322 347.117,351.822 344.5,351C 339.996,345.664 335.329,340.497 330.5,335.5C 331.911,333.086 333.911,331.419 336.5,330.5 Z"/></g>
<g><path style="opacity:1" fill="#f5f41f" d="M 173.5,330.5 C 175.914,331.911 177.581,333.911 178.5,336.5C 174.004,341.164 169.67,345.998 165.5,351C 162.607,352.149 159.607,352.649 156.5,352.5C 156.421,349.729 156.921,347.063 158,344.5C 163.336,339.996 168.503,335.329 173.5,330.5 Z"/></g>
<g><path style="opacity:1" fill="#dbe600" d="M 209.5,333.5 C 211.635,333.147 212.968,333.98 213.5,336C 212.629,340.472 211.962,344.972 211.5,349.5C 210.5,349.5 209.5,349.5 208.5,349.5C 208.956,345.881 207.456,343.548 204,342.5C 202.721,344.937 201.221,345.437 199.5,344C 203.037,340.631 206.371,337.131 209.5,333.5 Z"/></g>
<g><path style="opacity:1" fill="#ecf000" d="M 295.5,334.5 C 296.552,334.351 297.552,334.517 298.5,335C 301.833,338.333 305.167,341.667 308.5,345C 307.975,345.692 307.308,346.192 306.5,346.5C 304.344,344.062 302.011,343.895 299.5,346C 299.034,347.299 299.034,348.799 299.5,350.5C 298.5,350.5 297.5,350.5 296.5,350.5C 296.322,345.93 295.655,341.43 294.5,337C 294.743,336.098 295.077,335.265 295.5,334.5 Z"/></g>
<g><path style="opacity:1" fill="#f5f51d" d="M 328.5,337.5 C 336.765,346.937 345.265,356.27 354,365.5C 355.106,369.122 355.439,372.789 355,376.5C 351.917,375.361 348.917,374.028 346,372.5C 338.684,362.027 330.851,352.027 322.5,342.5C 323.891,340.11 325.891,338.443 328.5,337.5 Z"/></g>
<g><path style="opacity:1" fill="#f6f61c" d="M 180.5,338.5 C 183.292,338.622 185.292,339.956 186.5,342.5C 179.009,352.137 171.509,361.803 164,371.5C 161.297,373.902 158.13,375.235 154.5,375.5C 154.336,372.813 154.503,370.146 155,367.5C 163.365,357.64 171.865,347.973 180.5,338.5 Z"/></g>
<g><path style="opacity:1" fill="#197400" d="M 297.5,338.5 C 299.791,339.542 300.791,341.042 300.5,343C 298.539,342.489 297.539,340.989 297.5,338.5 Z"/></g>
<g><path style="opacity:1" fill="#ecf100" d="M 280.5,340.5 C 283.463,340.151 285.796,341.151 287.5,343.5C 285.018,343.606 282.518,343.939 280,344.5C 279.294,346.971 279.627,349.305 281,351.5C 283.222,354.303 285.055,354.137 286.5,351C 285.354,350.241 284.354,349.574 283.5,349C 284.893,346.644 286.726,346.144 289,347.5C 289.346,349.218 289.846,350.885 290.5,352.5C 289.726,353.711 288.893,353.711 288,352.5C 284.841,356.436 281.508,356.436 278,352.5C 275.383,347.578 276.217,343.578 280.5,340.5 Z"/></g>
<g><path style="opacity:1" fill="#e7ee00" d="M 221.5,339.5 C 223.144,339.286 224.644,339.62 226,340.5C 226.333,343.167 226.667,345.833 227,348.5C 228.667,346.167 230.333,343.833 232,341.5C 233.011,342.337 234.178,342.67 235.5,342.5C 234.671,347.486 233.337,352.319 231.5,357C 230.275,357.563 229.275,357.23 228.5,356C 229.724,353.61 230.224,351.11 230,348.5C 228.327,351.001 226.493,353.334 224.5,355.5C 223.673,351.541 223.173,347.541 223,343.5C 221.648,346.72 220.814,350.053 220.5,353.5C 219.325,353.719 218.325,353.386 217.5,352.5C 218.991,348.2 220.324,343.867 221.5,339.5 Z"/></g>
<g><path style="opacity:1" fill="#f6f61d" d="M 193.5,347.5 C 182.496,364.014 171.663,380.681 161,397.5C 158,399.167 155,400.833 152,402.5C 151.333,399.167 151.333,395.833 152,392.5C 164.051,376.622 175.884,360.622 187.5,344.5C 188.117,344.389 188.617,344.056 189,343.5C 190.667,344.733 192.167,346.067 193.5,347.5 Z"/></g>
<g><path style="opacity:1" fill="#eaf000" d="M 243.5,344.5 C 251.322,344.166 254.156,347.833 252,355.5C 250.309,359.213 247.475,360.379 243.5,359C 238.379,354.259 238.379,349.426 243.5,344.5 Z"/></g>
<g><path style="opacity:1" fill="#e7ed00" d="M 267.5,343.5 C 268.496,343.414 269.329,343.748 270,344.5C 270.538,349.171 271.038,353.838 271.5,358.5C 270.022,358.762 268.689,358.429 267.5,357.5C 265.667,355.167 263.833,352.833 262,350.5C 261.956,353.475 262.123,356.475 262.5,359.5C 261.5,359.5 260.5,359.5 259.5,359.5C 259.497,354.473 259.164,349.473 258.5,344.5C 259.552,344.351 260.552,344.517 261.5,345C 263.788,347.743 265.955,350.577 268,353.5C 268.172,350.174 268.005,346.841 267.5,343.5 Z"/></g>
<g><path style="opacity:1" fill="#f6f51d" d="M 321.5,344.5 C 332.748,359.982 344.248,375.316 356,390.5C 357.337,394.026 357.837,397.692 357.5,401.5C 354.063,400.866 350.896,399.533 348,397.5C 337.337,380.681 326.504,364.014 315.5,347.5C 316.833,346.067 318.333,344.733 320,343.5C 320.383,344.056 320.883,344.389 321.5,344.5 Z"/></g>
<g><path style="opacity:1" fill="#f8f817" d="M 202.5,352.5 C 189.229,379.597 174.895,406.097 159.5,432C 155.361,434.639 151.361,437.472 147.5,440.5C 147.167,440 146.833,439.5 146.5,439C 147.045,432.699 148.212,426.532 150,420.5C 164.844,396.805 179.678,373.139 194.5,349.5C 197.411,349.265 200.077,350.265 202.5,352.5 Z"/></g>
<g><path style="opacity:1" fill="#127c00" d="M 245.5,346.5 C 248.286,346.956 249.619,348.623 249.5,351.5C 249.592,354.327 248.425,356.327 246,357.5C 245.228,357.355 244.561,357.022 244,356.5C 243.037,352.851 243.537,349.518 245.5,346.5 Z"/></g>
<g><path style="opacity:1" fill="#f8f817" d="M 314.5,349.5 C 328.989,372.472 343.489,395.472 358,418.5C 359.75,421.246 360.75,424.246 361,427.5C 361.232,431.555 361.732,435.555 362.5,439.5C 362.167,439.833 361.833,440.167 361.5,440.5C 356.397,437.198 351.564,433.531 347,429.5C 333.241,403.924 319.741,378.258 306.5,352.5C 308.923,350.265 311.589,349.265 314.5,349.5 Z"/></g>
<g><path style="opacity:1" fill="#f6f61b" d="M 204.5,353.5 C 206.819,353.992 208.819,354.992 210.5,356.5C 202.623,375.258 194.456,393.924 186,412.5C 183.667,414.167 181.333,415.833 179,417.5C 177.595,413.928 177.262,410.261 178,406.5C 186.847,388.807 195.68,371.14 204.5,353.5 Z"/></g>
<g><path style="opacity:1" fill="#f7f71a" d="M 304.5,353.5 C 313.32,371.14 322.153,388.807 331,406.5C 331.825,410.211 331.659,413.878 330.5,417.5C 327.914,415.957 325.414,414.291 323,412.5C 314.729,393.845 306.563,375.179 298.5,356.5C 300.181,354.992 302.181,353.992 304.5,353.5 Z"/></g>
<g><path style="opacity:1" fill="#f6f61c" d="M 212.5,357.5 C 215.346,357.552 217.68,358.552 219.5,360.5C 215.773,372.18 211.94,383.847 208,395.5C 205.68,398.148 203.014,400.481 200,402.5C 198.916,399.751 198.083,396.918 197.5,394C 202.41,381.764 207.41,369.597 212.5,357.5 Z"/></g>
<g><path style="opacity:1" fill="#f4f41f" d="M 296.5,357.5 C 301.59,369.597 306.59,381.764 311.5,394C 310.956,396.4 310.289,398.733 309.5,401C 308.833,401.667 308.167,401.667 307.5,401C 305.29,399.491 303.457,397.658 302,395.5C 297.66,383.982 293.827,372.315 290.5,360.5C 291.784,358.386 293.784,357.386 296.5,357.5 Z"/></g>
<g><path style="opacity:1" fill="#f5f51e" d="M 229.5,362.5 C 228.316,369.556 226.816,376.556 225,383.5C 223.185,385.405 221.185,387.072 219,388.5C 217.448,386.232 216.615,383.732 216.5,381C 217.779,374.716 219.446,368.55 221.5,362.5C 222.222,362.082 222.722,361.416 223,360.5C 225.087,361.397 227.254,362.064 229.5,362.5 Z"/></g>
<g><path style="opacity:1" fill="#f4f320" d="M 287.5,360.5 C 289.574,367.295 291.574,374.128 293.5,381C 291.793,389.155 288.793,389.655 284.5,382.5C 282.509,375.871 280.843,369.204 279.5,362.5C 282.067,361.525 284.733,360.858 287.5,360.5 Z"/></g>
<g><path style="opacity:1" fill="#f3f321" d="M 232.5,363.5 C 235.059,363.198 237.393,363.532 239.5,364.5C 237.715,377.497 235.881,390.497 234,403.5C 231.954,405.376 230.121,407.376 228.5,409.5C 227.035,406.736 225.701,403.903 224.5,401C 227.11,388.449 229.776,375.949 232.5,363.5 Z"/></g>
<g><path style="opacity:1" fill="#f4f41f" d="M 277.5,363.5 C 280.088,375.438 282.421,387.438 284.5,399.5C 284.519,403.455 283.186,406.788 280.5,409.5C 278.851,407.35 277.018,405.35 275,403.5C 273.305,390.469 271.472,377.469 269.5,364.5C 271.948,363.527 274.615,363.194 277.5,363.5 Z"/></g>
<g><path style="opacity:1" fill="#f4f420" d="M 241.5,364.5 C 243.5,364.5 245.5,364.5 247.5,364.5C 247.5,367.5 247.5,370.5 247.5,373.5C 246.904,390.175 246.071,406.841 245,423.5C 241.559,436.344 238.059,436.511 234.5,424C 236.874,404.174 239.207,384.34 241.5,364.5 Z"/></g>
<g><path style="opacity:1" fill="#f8f719" d="M 249.5,365.5 C 252.5,365.5 255.5,365.5 258.5,365.5C 258.205,367.735 258.539,369.735 259.5,371.5C 260.692,399.491 261.192,427.491 261,455.5C 259.306,460.088 257.14,464.421 254.5,468.5C 251.86,464.421 249.694,460.088 248,455.5C 247.93,425.495 248.43,395.495 249.5,365.5 Z"/></g>
<g><path style="opacity:1" fill="#f4f320" d="M 261.5,364.5 C 263.5,364.5 265.5,364.5 267.5,364.5C 269.942,384.314 272.276,404.148 274.5,424C 273.673,427.488 272.173,430.654 270,433.5C 266.718,430.546 264.718,426.88 264,422.5C 262.882,406.177 262.048,389.844 261.5,373.5C 261.5,370.5 261.5,367.5 261.5,364.5 Z"/></g>
<g><path style="opacity:1" fill="#858862" d="M 261.5,364.5 C 261.5,367.5 261.5,370.5 261.5,373.5C 260.683,371.031 260.183,368.365 260,365.5C 259.505,367.473 259.338,369.473 259.5,371.5C 258.539,369.735 258.205,367.735 258.5,365.5C 259.209,364.596 260.209,364.263 261.5,364.5 Z"/></g>
<g><path style="opacity:0.992" fill="#c4e703" d="M 451.5,359.5 C 450.846,379.179 450.179,398.846 449.5,418.5C 438.335,433.165 425.335,445.998 410.5,457C 407.28,459.437 403.947,461.603 400.5,463.5C 401.149,456.91 401.482,450.244 401.5,443.5C 401.496,436.796 400.83,430.463 399.5,424.5C 420.603,405.743 437.936,384.077 451.5,359.5 Z"/></g>
<g><path style="opacity:0.997" fill="#3db103" d="M 93.5,409.5 C 113.694,429.031 136.361,445.031 161.5,457.5C 159.522,468.451 158.856,479.784 159.5,491.5C 135.216,482.038 113.216,469.038 93.5,452.5C 93.5,438.167 93.5,423.833 93.5,409.5 Z"/></g>
<g><path style="opacity:0.993" fill="#abdd03" d="M 399.5,424.5 C 400.83,430.463 401.496,436.796 401.5,443.5C 401.482,450.244 401.149,456.91 400.5,463.5C 384.037,475.736 366.037,485.403 346.5,492.5C 346.062,492.565 345.728,492.399 345.5,492C 346.808,486.578 347.475,480.911 347.5,475C 347.333,469.5 347.167,464 347,458.5C 346.023,459.774 345.189,459.774 344.5,458.5C 364.369,449.411 382.703,438.078 399.5,424.5 Z"/></g>
<g><path style="opacity:0.994" fill="#5cbd04" d="M 161.5,457.5 C 182.779,466.709 204.779,473.042 227.5,476.5C 226.761,476.369 226.094,476.536 225.5,477C 227.179,487.322 228.179,497.822 228.5,508.5C 204.652,506.121 181.652,500.454 159.5,491.5C 158.856,479.784 159.522,468.451 161.5,457.5 Z"/></g>
<g><path style="opacity:0.99" fill="#92d305" d="M 344.5,458.5 C 345.189,459.774 346.023,459.774 347,458.5C 347.167,464 347.333,469.5 347.5,475C 347.475,480.911 346.808,486.578 345.5,492C 345.728,492.399 346.062,492.565 346.5,492.5C 329.862,499.328 312.529,503.995 294.5,506.5C 294.457,496.474 294.457,486.14 294.5,475.5C 293.209,475.737 292.209,475.404 291.5,474.5C 309.777,471.181 327.444,465.847 344.5,458.5 Z"/></g>
<g><path style="opacity:0.991" fill="#7cca03" d="M 291.5,474.5 C 292.209,475.404 293.209,475.737 294.5,475.5C 294.457,486.14 294.457,496.474 294.5,506.5C 288.19,507.679 281.857,508.679 275.5,509.5C 261.5,509.5 247.5,509.5 233.5,509.5C 232.081,508.549 230.415,508.216 228.5,508.5C 228.179,497.822 227.179,487.322 225.5,477C 226.094,476.536 226.761,476.369 227.5,476.5C 237.169,476.708 246.835,477.042 256.5,477.5C 268.209,476.97 279.876,475.97 291.5,474.5 Z"/></g>
</svg>
